<?xml version="1.0" standalone="no"?>
<!DOCTYPE svg PUBLIC "-//W3C//DTD SVG 20010904//EN"
 "http://www.w3.org/TR/2001/REC-SVG-20010904/DTD/svg10.dtd">
<svg version="1.0" xmlns="http://www.w3.org/2000/svg"
 width="840.000000pt" height="426.000000pt" viewBox="0 0 840.000000 426.000000"
 preserveAspectRatio="xMidYMid meet">
<metadata>
Created by potrace 1.16, written by Peter Selinger 2001-2019
</metadata>
<g transform="translate(0.000000,426.000000) scale(0.100000,-0.100000)"
fill="#000000" stroke="none">
<path d="M663 3706 c-254 -193 -462 -354 -463 -358 0 -5 63 -8 140 -8 l140 0
0 -384 c0 -382 0 -383 23 -417 12 -18 38 -44 56 -56 31 -21 45 -23 162 -23
l129 0 0 -74 c0 -66 3 -78 26 -105 23 -28 32 -31 80 -31 l54 0 0 -125 c0 -101
-3 -125 -14 -125 -8 0 -29 -12 -46 -26 -26 -22 -31 -33 -28 -63 3 -31 8 -39
45 -56 l42 -20 1 -202 0 -203 -155 0 -155 0 0 -85 0 -85 70 0 c68 0 70 -1 70
-25 0 -24 -2 -25 -70 -25 l-70 0 0 -80 0 -80 70 0 c68 0 70 -1 70 -25 0 -24
-2 -25 -70 -25 l-70 0 0 -85 0 -85 154 0 153 0 5 -86 c4 -86 5 -88 42 -122 35
-31 42 -34 84 -29 35 4 53 12 74 36 l28 31 0 585 0 585 28 11 c41 16 72 49 72
79 0 31 -33 66 -72 75 l-28 7 0 124 0 124 58 0 c86 0 102 20 102 127 l0 81
139 4 c152 3 168 9 215 72 20 26 21 41 24 417 l3 389 135 0 c93 0 135 3 132
11 -2 6 -66 59 -143 118 l-140 108 -3 -34 c-2 -18 -7 -33 -13 -33 -5 0 -9 59
-9 140 0 133 1 140 20 140 17 0 20 7 20 45 l0 45 -120 0 -120 0 0 -45 c0 -38
3 -45 20 -45 16 0 20 -7 20 -36 0 -25 -3 -33 -12 -28 -7 5 -96 71 -198 148
-102 77 -198 150 -215 162 l-30 21 -462 -351z m437 -581 l0 -75 -80 0 -80 0 0
75 0 75 80 0 80 0 0 -75z m220 0 l0 -75 -80 0 -80 0 0 75 0 75 80 0 80 0 0
-75z m-220 -220 l0 -75 -80 0 -80 0 0 75 0 75 80 0 80 0 0 -75z m220 0 l0 -75
-80 0 -80 0 0 75 0 75 80 0 80 0 0 -75z"/>
<path d="M5710 2031 c-91 -28 -164 -94 -207 -186 -25 -53 -28 -71 -28 -160 0
-89 3 -107 28 -160 58 -124 148 -185 288 -194 l86 -6 57 -67 c45 -53 63 -68
85 -68 65 0 68 53 7 117 l-43 46 46 31 c96 65 146 181 139 325 -7 150 -83 265
-204 310 -57 22 -200 28 -254 12z m215 -110 c80 -36 145 -142 145 -236 0 -94
-65 -200 -145 -236 -48 -22 -151 -25 -198 -6 -93 39 -147 128 -147 242 0 113
53 201 145 241 45 20 152 17 200 -5z"/>
<path d="M1692 2018 c-17 -17 -17 -649 0 -666 20 -20 76 -15 88 7 5 11 10 78
10 150 l0 131 175 0 175 0 0 -138 c0 -94 4 -142 12 -150 20 -20 76 -15 88 7
14 27 14 625 0 652 -12 22 -68 27 -88 7 -8 -8 -12 -55 -12 -145 l0 -133 -175
0 -175 0 0 126 c0 69 -5 134 -10 145 -12 22 -68 27 -88 7z"/>
<path d="M7912 1877 c-57 -58 -73 -80 -70 -98 2 -20 10 -25 41 -27 l37 -3 0
-152 c0 -84 5 -169 11 -190 14 -53 56 -77 136 -77 97 0 140 30 113 80 -9 17
-21 20 -68 20 -32 0 -63 5 -70 12 -8 8 -12 58 -12 160 l0 148 53 0 c60 0 97
20 97 54 0 36 -19 46 -86 46 l-63 0 -3 48 c-5 72 -28 68 -116 -21z"/>
<path d="M2510 1847 c-50 -16 -114 -84 -133 -142 -22 -62 -22 -158 0 -220 20
-61 84 -126 139 -143 62 -18 172 -15 220 7 49 22 111 92 124 140 13 46 13 166
0 212 -13 48 -75 118 -124 140 -47 21 -168 24 -226 6z m188 -107 c66 -40 90
-146 51 -226 -65 -136 -255 -100 -284 52 -12 66 34 162 89 184 39 16 110 11
144 -10z"/>
<path d="M3625 1837 c-48 -27 -75 -76 -75 -135 0 -85 43 -127 160 -157 98 -25
130 -41 130 -64 0 -11 -10 -27 -22 -35 -30 -21 -126 -21 -178 0 -48 20 -86 12
-93 -18 -15 -58 65 -98 195 -98 91 0 133 15 171 59 23 28 27 42 27 93 0 56 -2
63 -37 98 -31 30 -54 41 -123 59 -131 35 -156 59 -104 100 30 23 112 29 173
11 50 -14 73 2 69 48 -3 33 -7 38 -43 48 -22 7 -78 13 -125 13 -70 1 -92 -3
-125 -22z"/>
<path d="M4480 1849 c-13 -6 -39 -21 -57 -34 l-32 -25 -3 27 c-2 24 -8 29 -36
31 -61 6 -62 4 -62 -253 0 -257 1 -259 62 -253 l33 3 3 160 3 160 32 33 c42
44 78 62 122 62 88 0 99 -24 105 -240 l5 -175 36 -3 c59 -5 61 4 57 216 -3
185 -4 189 -30 229 -14 22 -42 47 -61 56 -39 19 -137 22 -177 6z"/>
<path d="M5005 1846 c-93 -41 -145 -128 -145 -246 0 -119 53 -207 147 -247 53
-22 152 -17 206 11 l47 23 0 -39 c0 -47 -20 -89 -56 -117 -37 -29 -128 -29
-212 1 l-63 22 -21 -22 c-60 -60 47 -121 212 -121 129 -1 192 38 230 139 18
48 27 548 11 579 -15 27 -76 29 -92 3 -11 -17 -14 -17 -57 5 -52 27 -157 31
-207 9z m208 -116 l47 -30 0 -100 0 -100 -47 -30 c-118 -75 -248 -7 -248 130
0 137 130 205 248 130z"/>
<path d="M6975 1841 c-81 -37 -127 -122 -129 -236 -1 -98 19 -161 68 -210 50
-49 98 -65 198 -65 114 0 198 36 198 85 0 45 -40 57 -103 30 -20 -8 -62 -15
-94 -15 -83 0 -136 37 -158 108 l-6 22 180 0 c207 0 208 0 195 88 -13 93 -59
161 -129 193 -54 25 -166 25 -220 0z m176 -96 c30 -16 69 -68 69 -92 0 -10
-34 -13 -135 -13 -74 0 -135 2 -135 5 0 3 6 21 14 40 28 66 119 95 187 60z"/>
<path d="M7480 1838 c-27 -14 -50 -36 -62 -58 -34 -66 -17 -163 35 -192 12 -7
69 -29 127 -48 87 -29 106 -39 108 -57 7 -51 -104 -71 -201 -36 -60 22 -82 11
-82 -38 0 -30 5 -36 40 -54 49 -24 195 -33 248 -16 20 7 50 28 67 47 26 31 30
42 30 96 0 57 -2 63 -37 98 -31 30 -54 41 -123 59 -132 35 -156 59 -102 101
24 20 36 22 102 17 41 -2 82 -7 91 -11 9 -4 26 1 40 13 20 16 22 23 14 47 -13
37 -63 52 -170 53 -65 1 -89 -3 -125 -21z"/>
<path d="M2992 1838 c-8 -8 -12 -66 -12 -193 0 -168 2 -184 23 -225 12 -25 38
-55 57 -68 31 -21 45 -23 111 -20 62 2 83 8 116 30 l40 27 12 -25 c8 -18 18
-24 44 -24 18 0 38 5 45 12 17 17 17 469 0 486 -7 7 -27 12 -45 12 -47 0 -53
-23 -53 -193 -1 -97 -5 -147 -13 -158 -27 -35 -90 -69 -129 -69 -92 0 -108 36
-108 239 0 82 -3 156 -6 165 -7 19 -64 22 -82 4z"/>
<path d="M4062 1838 c-13 -13 -18 -451 -6 -482 7 -19 64 -22 82 -4 13 13 18
451 6 482 -7 19 -64 22 -82 4z"/>
<path d="M6280 1824 c-13 -33 -13 -276 0 -345 12 -62 32 -94 81 -127 30 -21
43 -23 109 -20 62 3 82 8 114 30 l40 27 10 -22 c15 -29 74 -36 93 -11 16 22
19 445 3 475 -12 22 -68 27 -88 7 -8 -8 -12 -60 -12 -168 l0 -156 -32 -31
c-45 -42 -70 -53 -121 -53 -38 0 -49 5 -71 31 -26 30 -26 32 -26 198 0 183 -2
191 -57 191 -27 0 -35 -5 -43 -26z"/>
</g>
</svg>
